<?xml version="1.0" encoding="UTF-8" standalone="no" ?>
<!DOCTYPE svg PUBLIC "-//W3C//DTD SVG 1.1//EN" "http://www.w3.org/Graphics/SVG/1.1/DTD/svg11.dtd">
<svg xmlns="http://www.w3.org/2000/svg" xmlns:xlink="http://www.w3.org/1999/xlink" version="1.1" width="96" height="96" viewBox="0 0 96 96" xml:space="preserve">
<desc>Created with Fabric.js 4.6.0</desc>
<defs>
</defs>
<g transform="matrix(1 0 0 1 24 72)" id="U9x4RdMSy0YH0AdeqEkFF"  >
<path style="stroke: rgb(240,66,255); stroke-width: 0; stroke-dasharray: none; stroke-linecap: butt; stroke-dashoffset: 0; stroke-linejoin: miter; stroke-miterlimit: 4; fill: rgb(247,47,58); fill-rule: nonzero; opacity: 1;" vector-effect="non-scaling-stroke"  transform=" translate(-24, -24)" d="M 0 10.18236 C 0 4.558799999999999 4.5588 0 10.18236 0 L 37.81765 0 L 37.81765 0 C 43.44121 0 48.00001 4.5588 48.00001 10.18236 L 48.00001 37.81765 L 48.00001 37.81765 C 48.00001 43.44121 43.441210000000005 48.00001 37.81765 48.00001 L 10.18236 48.00001 L 10.18236 48.00001 C 4.558799999999999 48.00001 0 43.441210000000005 0 37.81765 z" stroke-linecap="round" />
</g>
<g transform="matrix(1 0 0 1 72 72)" id="gzdFf5TN-2WXAM0PefWfJ"  >
<path style="stroke: rgb(240,66,255); stroke-width: 0; stroke-dasharray: none; stroke-linecap: butt; stroke-dashoffset: 0; stroke-linejoin: miter; stroke-miterlimit: 4; fill: rgb(255,243,18); fill-rule: nonzero; opacity: 1;" vector-effect="non-scaling-stroke"  transform=" translate(-24, -24)" d="M 0 10.18236 C 0 4.558799999999999 4.5588 0 10.18236 0 L 37.81764 0 L 37.81764 0 C 43.441199999999995 0 48 4.5588 48 10.18236 L 48 37.81764 L 48 37.81764 C 48 43.441199999999995 43.4412 48 37.81764 48 L 10.182359999999996 48 L 10.182359999999996 48 C 4.558799999999995 48 -3.552713678800501e-15 43.4412 -3.552713678800501e-15 37.81764 z" stroke-linecap="round" />
</g>
<g transform="matrix(1 0 0 1 72 24)" id="atVYrm0stol26T4LXH212"  >
<path style="stroke: rgb(240,66,255); stroke-width: 0; stroke-dasharray: none; stroke-linecap: butt; stroke-dashoffset: 0; stroke-linejoin: miter; stroke-miterlimit: 4; fill: rgb(49,168,247); fill-rule: nonzero; opacity: 1;" vector-effect="non-scaling-stroke"  transform=" translate(-24, -24)" d="M 0 10.18236 C 0 4.558799999999999 4.5588 0 10.18236 0 L 37.81764 0 L 37.81764 0 C 43.441199999999995 0 48 4.5588 48 10.18236 L 48 37.81764 L 48 37.81764 C 48 43.441199999999995 43.4412 48 37.81764 48 L 10.182359999999996 48 L 10.182359999999996 48 C 4.558799999999995 48 -3.552713678800501e-15 43.4412 -3.552713678800501e-15 37.81764 z" stroke-linecap="round" />
</g>
</svg>