<?xml version="1.0" encoding="UTF-8" standalone="no" ?>
<!DOCTYPE svg PUBLIC "-//W3C//DTD SVG 1.1//EN" "http://www.w3.org/Graphics/SVG/1.1/DTD/svg11.dtd">
<svg xmlns="http://www.w3.org/2000/svg" xmlns:xlink="http://www.w3.org/1999/xlink" version="1.1" width="300" height="98.1915" viewBox="0 0 300 98.1915" xml:space="preserve">
<desc>Created with Fabric.js 4.6.0</desc>
<defs>
</defs>
<g transform="matrix(1 0 0 1 150 49.1)" id="i7RB35sYx1K_zEl4eLeKv"  >
<path style="stroke: rgb(255,255,255); stroke-width: 0; stroke-dasharray: none; stroke-linecap: round; stroke-dashoffset: 0; stroke-linejoin: miter; stroke-miterlimit: 4; fill: rgb(255,255,255); fill-rule: evenodd; opacity: 1;" vector-effect="non-scaling-stroke"  transform=" translate(-150, -49.1)" d="M 289.53177 50.77459 L 297.92960999999997 40.438790000000004 C 294.28839999999997 37.227250000000005 290.04436999999996 34.772580000000005 285.44487999999996 33.21786 C 281.18924999999996 31.75344 276.71982999999994 31.00643 272.21928999999994 31.00737 C 268.30054999999993 30.97248 264.40418999999997 31.601450000000003 260.69546999999994 32.86761 C 256.76806999999997 34.252449999999996 253.49068999999994 36.35998 251.11667999999995 39.01155 C 248.39816999999994 41.97389 246.89192999999995 45.84953 246.89655999999994 49.87019 C 246.86048999999994 52.164860000000004 247.32802999999993 54.43954 248.26625999999993 56.533950000000004 C 252.09676999999994 64.84195 263.20573999999993 67.34717 271.83169999999996 69.76659000000001 C 271.84246999999993 69.76962 271.85322999999994 69.77265000000001 271.864 69.77567 C 274.81939 70.57306 279.03950999999995 71.51984 281.83441999999997 73.40228 C 283.57149 74.37152 284.67720999999995 76.17663 284.75145999999995 78.16442 C 284.69697999999994 79.45666000000001 284.07818999999995 80.65991000000001 283.0587699999999 81.45593000000001 C 281.05418999999995 83.21826000000001 277.4548299999999 84.36590000000001 273.25287999999995 84.36590000000001 C 266.49109999999996 84.20097000000001 259.9734399999999 81.80569000000001 254.71403999999995 77.55275 C 254.38497999999996 77.28986 254.06156999999996 77.01997 253.74404999999996 76.74325 L 244.70021999999994 87.20824 C 252.45206999999994 94.3141 262.14188999999993 98.19002 272.86528999999996 98.19002 C 277.11603999999994 98.22776 281.34137999999996 97.53116 285.35506 96.13094000000001 C 294.2485 92.92725000000002 299.99678 86.25642 299.99678 78.03522000000001 C 300.04771 75.28314 299.50264 72.55263000000001 298.39897 70.03103000000002 C 296.24097 65.28706000000001 292.06627000000003 62.22165000000002 286.91754000000003 60.029330000000016 C 283.28612000000004 58.56406000000002 279.53575 57.412880000000015 275.70763000000005 56.58844000000001 C 274.9413200000001 56.40494000000001 274.17522 56.22056000000001 273.40933000000007 56.03531000000001 C 267.37540000000007 54.56771000000001 262.2710900000001 53.10011000000001 262.2710900000001 49.99937000000001 C 262.2897700000001 48.814650000000015 262.85170000000005 47.704180000000015 263.7952200000001 46.98745000000001 C 265.3314600000001 45.70961000000001 268.04057000000006 44.86579000000001 271.9760500000001 44.83248000000001 C 272.0571300000001 44.83180000000001 272.1382200000001 44.831460000000014 272.2193000000001 44.83147000000001 C 278.4207800000001 44.83147000000001 284.8806600000001 46.76943000000001 289.5317800000001 50.77455000000001 z M 0 96.89808 L 15.24531 96.89808 L 15.24531 88.62943999999999 C 19.50883 93.92652999999999 27.002290000000002 98.19004999999999 35.14174 98.19004999999999 C 43.581109999999995 98.27186999999998 51.68976 94.91273999999999 57.5989 88.88682999999999 C 63.61062 82.75802999999999 67.18274 74.12500999999999 67.18274 64.59871999999999 C 67.18274 46.12348999999999 53.74619 31.007389999999987 35.14174 31.007389999999987 C 27.00229 31.007389999999987 19.508829999999996 35.270909999999986 15.24531 40.309609999999985 L 15.24531 3.8759299999999826 L 0 3.8759299999999826 z M 239.01552 87.72506 L 228.29212 76.87248 C 224.93298000000001 80.61921 220.02348 82.94476 214.72637 82.94476 C 204.64896 82.94476 196.38031 74.67612 196.38031 64.59872 C 196.38031 54.52132 204.64895 46.25268 214.72637 46.25268 C 219.2281 46.26963 223.5711 47.91775 226.95068 50.89168 C 227.4197 51.303290000000004 227.86743 51.738550000000004 228.29211 52.19577 L 239.01551 41.47238 C 232.94322 35.01251 224.28699 31.00739 214.72637 31.00739 C 196.25112000000001 31.00739 181.135 45.99429 181.135 64.59872 C 181.135 83.07395 196.25112 98.19005 214.72636999999997 98.19005 C 221.55835999999996 98.20362 228.22899999999998 96.11422 233.83246999999997 92.20558 C 235.71012999999996 90.89492 237.44706999999997 89.39341 239.01550999999998 87.72505 z M 94.05584 0 L 78.81053 0 L 78.81053 96.89808 L 94.05584 96.89808 z M 139.27499 31.00739 C 120.79974 31.00739 105.68362 45.99429 105.68362 64.59872 C 105.68362 83.07395 120.79974 98.19005 139.27499 98.19005 C 157.87944 98.19005 172.86636 83.07395 172.86636 64.59872 C 172.86636 45.99429 157.87944 31.00739 139.27499 31.00739 z M 33.59137 46.25268 C 43.66878 46.25268 51.93743 54.521319999999996 51.93743 64.59872 C 51.93743 74.67612 43.66879 82.94476 33.59137 82.94476 C 23.513959999999997 82.94476 15.245309999999996 74.67612 15.245309999999996 64.59872 C 15.245309999999996 54.52132 23.513949999999994 46.25268 33.59137 46.25268 z M 120.92893 64.59872 C 120.92893 54.52132 129.19756999999998 46.25268 139.27499 46.25268 C 149.3524 46.25268 157.62105 54.521319999999996 157.62105 64.59872 C 157.62105 74.67612 149.35241 82.94476 139.27499 82.94476 C 129.19758000000002 82.94476 120.92893000000001 74.67612 120.92893000000001 64.59872 z" stroke-linecap="round" />
</g>
</svg>