<?xml version="1.0" encoding="UTF-8" standalone="no" ?>
<!DOCTYPE svg PUBLIC "-//W3C//DTD SVG 1.1//EN" "http://www.w3.org/Graphics/SVG/1.1/DTD/svg11.dtd">
<svg xmlns="http://www.w3.org/2000/svg" xmlns:xlink="http://www.w3.org/1999/xlink" version="1.1" width="403" height="98" viewBox="0 0 403 98" xml:space="preserve">
<desc>Created with Fabric.js 4.6.0</desc>
<defs>
</defs>
<g transform="matrix(1 0 0 1 201.5 49)" id="FbhPbLYcEU1HbxtK-sWLc"  >
<path style="stroke: rgb(149,7,34); stroke-width: 0; stroke-dasharray: none; stroke-linecap: butt; stroke-dashoffset: 0; stroke-linejoin: miter; stroke-miterlimit: 4; fill: rgb(0,0,0); fill-rule: nonzero; opacity: 0;" vector-effect="non-scaling-stroke"  transform=" translate(-201.5, -49)" d="M 0 0 L 403 0 L 403 98 L 0 98 z" stroke-linecap="round" />
</g>
<g transform="matrix(1 0 0 1 148.61 48.64)" id="OSmqq6lvS5reWZK9TOhAK"  >
<path style="stroke: rgb(255,255,255); stroke-width: 0; stroke-dasharray: none; stroke-linecap: round; stroke-dashoffset: 0; stroke-linejoin: miter; stroke-miterlimit: 4; fill: rgb(255,255,255); fill-rule: evenodd; opacity: 1;" vector-effect="non-scaling-stroke"  transform=" translate(-148.61, -48.64)" d="M 286.848 50.304 L 295.168 40.064 C 291.56054153326926 36.88222303823152 287.3558529453317 34.450309208649095 282.799 32.90999999999998 C 278.58281689315214 31.459150038654595 274.15482997351245 30.719068274630246 269.696 30.71999999999999 C 265.8135813703303 30.685429841938767 261.9533410121961 31.308572784922152 258.279 32.563 C 254.388 33.935 251.141 36.023 248.789 38.65 C 246.0956864868167 41.584883993369516 244.60341465028927 45.42460186406126 244.608 49.40800000000001 C 244.5722600491407 51.681407166129055 245.03547156252375 53.93499774192477 245.965 56.01 C 249.76 64.241 260.766 66.723 269.312 69.12 C 269.32266598247065 69.12300243216505 269.33333264941456 69.12600243224303 269.344 69.12899999999999 C 272.272 69.919 276.453 70.857 279.222 72.722 C 280.94296921662834 73.68225335016616 282.0384364843052 75.47063209372996 282.112 77.44 C 282.05802151429117 78.72026615017758 281.4449741434851 79.91236363151233 280.435 80.701 C 278.449 82.447 274.883 83.584 270.72 83.584 C 264.02089868704724 83.42059911357116 257.56365538785695 81.04751737624147 252.353 76.834 C 252.0269858025246 76.57354825025878 251.70657920740513 76.30615377649626 251.392 76.032 L 242.432 86.4 C 250.112 93.44 259.712 97.28 270.336 97.28 C 274.5473469666671 97.31738918596398 278.7335214421088 96.6272488974638 282.71 95.24 C 291.521 92.066 297.216 85.457 297.216 77.312 C 297.2664582349439 74.5854319981089 296.7264394853996 71.8802212060142 295.633 69.382 C 293.495 64.682 289.359 61.645 284.258 59.473 C 280.66024518574835 58.02131090233059 276.9446348280879 56.88079985341429 273.152 56.06399999999999 C 272.39279220263774 55.88219783607486 271.6337917103698 55.69953105093519 270.8749999999999 55.515999999999885 C 264.897 54.062 259.84 52.608 259.84 49.536 C 259.8585053649139 48.36225601988704 260.41522800895484 47.26208358954386 261.35 46.552 C 262.872 45.286 265.556 44.45 269.455 44.417 C 269.53533156006245 44.4163262323109 269.61566561474376 44.415992895984424 269.696 44.416 C 275.84 44.416 282.24 46.336 286.848 50.304 Z M 0 96 L 15.104 96 L 15.104 87.808 C 19.328 93.056 26.752 97.28 34.816 97.28 C 43.1771439711101 97.36106275780567 51.21063087270168 94.033063801809 57.06499999999999 88.063 C 63.021 81.991 66.56 73.438 66.56 64 C 66.56 45.696 53.248 30.72 34.816 30.72 C 26.752 30.72 19.328 34.944 15.104 39.936 L 15.104 3.84 L 0 3.84 L 0 96 Z M 236.8 86.912 L 226.176 76.16 C 222.848 79.872 217.984 82.176 212.736 82.176 C 202.752 82.176 194.56 73.984 194.56 64 C 194.56 54.016 202.752 45.824 212.736 45.824 C 217.1960004029761 45.84079091418127 221.4987420375005 47.47363713268297 224.847 50.42 C 225.31167652558105 50.827792990943585 225.75525267866928 51.25901977031906 226.176 51.712 L 236.8 41.088 C 230.784 34.688 222.208 30.72 212.736 30.72 C 194.432 30.72 179.456 45.568 179.456 64 C 179.456 82.304 194.432 97.28 212.736 97.28 C 219.50466542816204 97.29344175318467 226.11347324880538 95.2234105012118 231.66500000000002 91.351 C 233.52525315578157 90.05248553300197 235.24609089944593 88.56489084086449 236.8 86.912 Z M 93.184 0 L 78.08 0 L 78.08 96 L 93.184 96 L 93.184 0 Z M 137.984 30.72 C 119.68 30.72 104.704 45.568 104.704 64 C 104.704 82.304 119.68 97.28 137.984 97.28 C 156.416 97.28 171.264 82.304 171.264 64 C 171.264 45.568 156.416 30.72 137.984 30.72 Z M 33.28 45.824 C 43.264 45.824 51.456 54.016 51.456 64 C 51.456 73.984 43.264 82.176 33.28 82.176 C 23.296 82.176 15.104 73.984 15.104 64 C 15.104 54.016 23.296 45.824 33.28 45.824 Z M 119.808 64 C 119.808 54.016 128 45.824 137.984 45.824 C 147.968 45.824 156.16 54.016 156.16 64 C 156.16 73.984 147.968 82.176 137.984 82.176 C 128 82.176 119.808 73.984 119.808 64 Z" stroke-linecap="round" />
</g>
<g transform="matrix(1 0 0 1 355 48)" id="buiFKKBLgwxcJw0s0JNqk"  >
<g style="" vector-effect="non-scaling-stroke"   >
		<g transform="matrix(1 0 0 1 -24 24)" id="pfFxvKu8_uADY64rNLUpm"  >
<path style="stroke: rgb(240,66,255); stroke-width: 0; stroke-dasharray: none; stroke-linecap: butt; stroke-dashoffset: 0; stroke-linejoin: miter; stroke-miterlimit: 4; fill: rgb(247,47,58); fill-rule: nonzero; opacity: 1;" vector-effect="non-scaling-stroke"  transform=" translate(-24, -24)" d="M 0 10.18236 C 0 4.558799999999999 4.5588 0 10.18236 0 L 37.81765 0 L 37.81765 0 C 43.44121 0 48.00001 4.5588 48.00001 10.18236 L 48.00001 37.81765 L 48.00001 37.81765 C 48.00001 43.44121 43.441210000000005 48.00001 37.81765 48.00001 L 10.18236 48.00001 L 10.18236 48.00001 C 4.558799999999999 48.00001 0 43.441210000000005 0 37.81765 z" stroke-linecap="round" />
</g>
		<g transform="matrix(1 0 0 1 24 24)" id="5ghNotDl11rMU3pDG3BYL"  >
<path style="stroke: rgb(240,66,255); stroke-width: 0; stroke-dasharray: none; stroke-linecap: butt; stroke-dashoffset: 0; stroke-linejoin: miter; stroke-miterlimit: 4; fill: rgb(255,243,18); fill-rule: nonzero; opacity: 1;" vector-effect="non-scaling-stroke"  transform=" translate(-24, -24)" d="M 0 10.18236 C 0 4.558799999999999 4.5588 0 10.18236 0 L 37.81764 0 L 37.81764 0 C 43.441199999999995 0 48 4.5588 48 10.18236 L 48 37.81764 L 48 37.81764 C 48 43.441199999999995 43.4412 48 37.81764 48 L 10.182359999999996 48 L 10.182359999999996 48 C 4.558799999999995 48 -3.552713678800501e-15 43.4412 -3.552713678800501e-15 37.81764 z" stroke-linecap="round" />
</g>
		<g transform="matrix(1 0 0 1 24 -24)" id="VJvv0kzw-xgd_pfvYu27V"  >
<path style="stroke: rgb(240,66,255); stroke-width: 0; stroke-dasharray: none; stroke-linecap: butt; stroke-dashoffset: 0; stroke-linejoin: miter; stroke-miterlimit: 4; fill: rgb(49,168,247); fill-rule: nonzero; opacity: 1;" vector-effect="non-scaling-stroke"  transform=" translate(-24, -24)" d="M 0 10.18236 C 0 4.558799999999999 4.5588 0 10.18236 0 L 37.81764 0 L 37.81764 0 C 43.441199999999995 0 48 4.5588 48 10.18236 L 48 37.81764 L 48 37.81764 C 48 43.441199999999995 43.4412 48 37.81764 48 L 10.182359999999996 48 L 10.182359999999996 48 C 4.558799999999995 48 -3.552713678800501e-15 43.4412 -3.552713678800501e-15 37.81764 z" stroke-linecap="round" />
</g>
</g>
</g>
</svg>